<svg id="visual" viewBox="0 0 900 100" width="900" height="100" xmlns="http://www.w3.org/2000/svg" xmlns:xlink="http://www.w3.org/1999/xlink" version="1.1"><rect x="0" y="0" width="900" height="100" fill="#fbeec1"></rect><path d="M0 77L21.5 77.2C43 77.3 86 77.7 128.8 76.7C171.7 75.7 214.3 73.3 257.2 72.3C300 71.3 343 71.7 385.8 70.5C428.7 69.3 471.3 66.7 514.2 67.8C557 69 600 74 642.8 74.5C685.7 75 728.3 71 771.2 70C814 69 857 71 878.5 72L900 73L900 101L878.5 101C857 101 814 101 771.2 101C728.3 101 685.7 101 642.8 101C600 101 557 101 514.2 101C471.3 101 428.7 101 385.8 101C343 101 300 101 257.2 101C214.3 101 171.7 101 128.8 101C86 101 43 101 21.5 101L0 101Z" fill="#bd804a"></path><path d="M0 87L21.5 86C43 85 86 83 128.8 83.5C171.7 84 214.3 87 257.2 87.2C300 87.3 343 84.7 385.8 82C428.7 79.3 471.3 76.7 514.2 76C557 75.3 600 76.7 642.8 78.7C685.7 80.7 728.3 83.3 771.2 84.8C814 86.3 857 86.7 878.5 86.8L900 87L900 101L878.5 101C857 101 814 101 771.2 101C728.3 101 685.7 101 642.8 101C600 101 557 101 514.2 101C471.3 101 428.7 101 385.8 101C343 101 300 101 257.2 101C214.3 101 171.7 101 128.8 101C86 101 43 101 21.5 101L0 101Z" fill="#434343"></path></svg>