<svg id="visual" viewBox="0 0 900 200" width="900" height="200" xmlns="http://www.w3.org/2000/svg" xmlns:xlink="http://www.w3.org/1999/xlink" version="1.1"><rect x="0" y="0" width="900" height="200" fill="#fbeec1"></rect><path d="M0 155L21.5 155.3C43 155.7 86 156.3 128.8 154.3C171.7 152.3 214.3 147.7 257.2 145.8C300 144 343 145 385.8 142.8C428.7 140.7 471.3 135.3 514.2 137.7C557 140 600 150 642.8 150.7C685.7 151.3 728.3 142.7 771.2 140.7C814 138.7 857 143.3 878.5 145.7L900 148L900 201L878.5 201C857 201 814 201 771.2 201C728.3 201 685.7 201 642.8 201C600 201 557 201 514.2 201C471.3 201 428.7 201 385.8 201C343 201 300 201 257.2 201C214.3 201 171.7 201 128.8 201C86 201 43 201 21.5 201L0 201Z" fill="#bd804a"></path><path d="M0 176L21.5 174C43 172 86 168 128.8 168.8C171.7 169.7 214.3 175.3 257.2 175.5C300 175.7 343 170.3 385.8 165C428.7 159.7 471.3 154.3 514.2 153.2C557 152 600 155 642.8 159.2C685.7 163.3 728.3 168.7 771.2 171.5C814 174.3 857 174.7 878.5 174.8L900 175L900 201L878.5 201C857 201 814 201 771.2 201C728.3 201 685.7 201 642.8 201C600 201 557 201 514.2 201C471.3 201 428.7 201 385.8 201C343 201 300 201 257.2 201C214.3 201 171.7 201 128.8 201C86 201 43 201 21.5 201L0 201Z" fill="#434343"></path></svg>