<svg width="828" height="600" viewBox="0 0 828 600" fill="none" xmlns="http://www.w3.org/2000/svg">
<g clip-path="url(#clip0_6_71)">
<path d="M0 514L23 510.5C46 507 92 500 138 497.8C184 495.7 230 498.3 276 498.3C322 498.3 368 495.7 414 490.2C460 484.7 506 476.3 552 481.2C598 486 644 504 690 509.8C736 515.7 782 509.3 805 506.2L828 503V601H805C782 601 736 601 690 601C644 601 598 601 552 601C506 601 460 601 414 601C368 601 322 601 276 601C230 601 184 601 138 601C92 601 46 601 23 601H0V514Z" fill="#FBEEC1" fill-opacity="0.85"/>
<path d="M0 534L23 532.7C46 531.3 92 528.7 138 526.3C184 524 230 522 276 523.7C322 525.3 368 530.7 414 532.8C460 535 506 534 552 533.7C598 533.3 644 533.7 690 531.2C736 528.7 782 523.3 805 520.7L828 518V601H805C782 601 736 601 690 601C644 601 598 601 552 601C506 601 460 601 414 601C368 601 322 601 276 601C230 601 184 601 138 601C92 601 46 601 23 601H0V534Z" fill="#FBEEC1"/>
</g>
<defs>
<clipPath id="clip0_6_71">
<rect width="828" height="600" fill="white"/>
</clipPath>
</defs>
</svg>
